<svg xmlns="http://www.w3.org/2000/svg" viewBox="0 0 1200 900" role="img">
  <rect width="1200" height="900" fill="#ffffff"/>
  <g fill="none" stroke="#20241f" stroke-width="7.2" stroke-linejoin="round" stroke-linecap="round"><path d="M 324 810 L 324 594 A 552 552 0 0 1 600 115.95 A 552 552 0 0 1 876 594 L 876 810"/><path d="M 384 810 L 384 594 A 432 432 0 0 1 600 219.88 A 432 432 0 0 1 816 594 L 816 810"/><path d="M 444 810 L 444 594 A 312 312 0 0 1 600 323.8 A 312 312 0 0 1 756 594 L 756 810"/><line x1="144" y1="810" x2="1056" y2="810"/><line x1="300" y1="594" x2="300" y2="810"/><line x1="900" y1="594" x2="900" y2="810"/></g>
  <path d="M 384 810 L 384 594 A 432 432 0 0 1 600 219.88 A 432 432 0 0 1 816 594 L 816 810" fill="rgba(12,107,73,0.10)" stroke="none"/>
  <path d="M600,199.95 L616.07,245.15 L659.4,224.56 L638.8,267.88 L684,283.95 L638.8,300.03 L659.4,343.35 L616.07,322.76 L600,367.95 L583.93,322.76 L540.6,343.35 L561.2,300.03 L516,283.95 L561.2,267.88 L540.6,224.56 L583.93,245.15 Z" fill="none" stroke="#0c6b49" stroke-width="7.2" stroke-linejoin="round"/>
  <circle cx="600" cy="283.95" r="12" fill="#0c6b49"/>
</svg>