<svg xmlns="http://www.w3.org/2000/svg" viewBox="0 0 960 1200" role="img">
  <rect width="960" height="1200" fill="#ffffff"/>
  <g fill="none" stroke="rgba(16,19,15,0.28)" stroke-width="4.61"><line x1="480" y1="600" x2="480" y2="220.22"/><line x1="480" y1="600" x2="669.89" y2="271.1"/><line x1="480" y1="600" x2="808.9" y2="410.11"/><line x1="480" y1="600" x2="859.78" y2="600"/><line x1="480" y1="600" x2="808.9" y2="789.89"/><line x1="480" y1="600" x2="669.89" y2="928.9"/><line x1="480" y1="600" x2="480" y2="979.78"/><line x1="480" y1="600" x2="290.11" y2="928.9"/><line x1="480" y1="600" x2="151.1" y2="789.89"/><line x1="480" y1="600" x2="100.22" y2="600"/><line x1="480" y1="600" x2="151.1" y2="410.11"/><line x1="480" y1="600" x2="290.11" y2="271.1"/></g>
  <g fill="none" stroke="#20241f" stroke-width="5.76" stroke-linejoin="round"><circle cx="480" cy="600" r="441.6"/><circle cx="480" cy="600" r="379.78"/><path d="M480,220.22 L539.43,378.19 L669.89,271.1 L642.37,437.63 L808.9,410.11 L701.81,540.57 L859.78,600 L701.81,659.43 L808.9,789.89 L642.37,762.37 L669.89,928.9 L539.43,821.81 L480,979.78 L420.57,821.81 L290.11,928.9 L317.63,762.37 L151.1,789.89 L258.19,659.43 L100.22,600 L258.19,540.57 L151.1,410.11 L317.63,437.63 L290.11,271.1 L420.57,378.19 Z"/><path d="M562.29,292.88 L572.74,439.38 L704.83,375.17 L640.62,507.26 L787.12,517.71 L665.47,600 L787.12,682.29 L640.62,692.74 L704.83,824.83 L572.74,760.62 L562.29,907.12 L480,785.47 L397.71,907.12 L387.26,760.62 L255.17,824.83 L319.38,692.74 L172.88,682.29 L294.53,600 L172.88,517.71 L319.38,507.26 L255.17,375.17 L387.26,439.38 L397.71,292.88 L480,414.53 Z"/><circle cx="480" cy="600" r="150.14"/></g>
  <path d="M518.86,454.97 L521.95,527.34 L586.17,493.83 L552.66,558.05 L625.03,561.14 L563.9,600 L625.03,638.86 L552.66,641.95 L586.17,706.17 L521.95,672.66 L518.86,745.03 L480,683.9 L441.14,745.03 L438.05,672.66 L373.83,706.17 L407.34,641.95 L334.97,638.86 L396.1,600 L334.97,561.14 L407.34,558.05 L373.83,493.83 L438.05,527.34 L441.14,454.97 L480,516.1 Z" fill="rgba(12,107,73,0.10)" stroke="#0c6b49" stroke-width="5.76" stroke-linejoin="round"/>
  <circle cx="480" cy="600" r="11.52" fill="#0c6b49"/>
</svg>