<svg xmlns="http://www.w3.org/2000/svg" viewBox="0 0 960 1200" role="img">
  <rect width="960" height="1200" fill="#ffffff"/>
  <g fill="none" stroke="rgba(16,19,15,0.28)" stroke-width="4.61"><line x1="480" y1="600" x2="480" y2="220.22"/><line x1="480" y1="600" x2="703.23" y2="292.75"/><line x1="480" y1="600" x2="841.19" y2="482.64"/><line x1="480" y1="600" x2="841.19" y2="717.36"/><line x1="480" y1="600" x2="703.23" y2="907.25"/><line x1="480" y1="600" x2="480" y2="979.78"/><line x1="480" y1="600" x2="256.77" y2="907.25"/><line x1="480" y1="600" x2="118.81" y2="717.36"/><line x1="480" y1="600" x2="118.81" y2="482.64"/><line x1="480" y1="600" x2="256.77" y2="292.75"/></g>
  <g fill="none" stroke="#20241f" stroke-width="5.76" stroke-linejoin="round"><circle cx="480" cy="600" r="441.6"/><circle cx="480" cy="600" r="379.78"/><path d="M480,220.22 L550.96,381.61 L703.23,292.75 L665.78,465.03 L841.19,482.64 L709.63,600 L841.19,717.36 L665.78,734.97 L703.23,907.25 L550.96,818.39 L480,979.78 L409.04,818.39 L256.77,907.25 L294.22,734.97 L118.81,717.36 L250.37,600 L118.81,482.64 L294.22,465.03 L256.77,292.75 L409.04,381.61 Z"/><path d="M578.25,297.61 L589.02,449.95 L737.23,413.11 L656.39,542.69 L797.95,600 L656.39,657.31 L737.23,786.89 L589.02,750.05 L578.25,902.39 L480,785.47 L381.75,902.39 L370.98,750.05 L222.77,786.89 L303.61,657.31 L162.05,600 L303.61,542.69 L222.77,413.11 L370.98,449.95 L381.75,297.61 L480,414.53 Z"/><circle cx="480" cy="600" r="150.14"/></g>
  <path d="M526.4,457.2 L529.32,532.12 L601.47,511.75 L559.8,574.07 L630.14,600 L559.8,625.93 L601.47,688.25 L529.32,667.88 L526.4,742.8 L480,683.9 L433.6,742.8 L430.68,667.88 L358.53,688.25 L400.2,625.93 L329.86,600 L400.2,574.07 L358.53,511.75 L430.68,532.12 L433.6,457.2 L480,516.1 Z" fill="rgba(12,107,73,0.10)" stroke="#0c6b49" stroke-width="5.76" stroke-linejoin="round"/>
  <circle cx="480" cy="600" r="11.52" fill="#0c6b49"/>
</svg>