<svg xmlns="http://www.w3.org/2000/svg" viewBox="0 0 960 1200" role="img">
  <rect width="960" height="1200" fill="#ffffff"/>
  <g fill="none" stroke="rgba(16,19,15,0.28)" stroke-width="4.61"><line x1="480" y1="600" x2="480" y2="220.22"/><line x1="480" y1="600" x2="748.54" y2="331.46"/><line x1="480" y1="600" x2="859.78" y2="600"/><line x1="480" y1="600" x2="748.54" y2="868.54"/><line x1="480" y1="600" x2="480" y2="979.78"/><line x1="480" y1="600" x2="211.46" y2="868.54"/><line x1="480" y1="600" x2="100.22" y2="600"/><line x1="480" y1="600" x2="211.46" y2="331.46"/></g>
  <g fill="none" stroke="#20241f" stroke-width="5.76" stroke-linejoin="round"><circle cx="480" cy="600" r="441.6"/><circle cx="480" cy="600" r="379.78"/><path d="M480,220.22 L567.88,387.85 L748.54,331.46 L692.15,512.12 L859.78,600 L692.15,687.88 L748.54,868.54 L567.88,812.15 L480,979.78 L392.12,812.15 L211.46,868.54 L267.85,687.88 L100.22,600 L267.85,512.12 L211.46,331.46 L392.12,387.85 Z"/><path d="M601.67,306.25 L611.15,468.85 L773.75,478.33 L665.47,600 L773.75,721.67 L611.15,731.15 L601.67,893.75 L480,785.47 L358.33,893.75 L348.85,731.15 L186.25,721.67 L294.53,600 L186.25,478.33 L348.85,468.85 L358.33,306.25 L480,414.53 Z"/><circle cx="480" cy="600" r="150.14"/></g>
  <path d="M537.46,461.29 L539.33,540.67 L618.71,542.54 L563.9,600 L618.71,657.46 L539.33,659.33 L537.46,738.71 L480,683.9 L422.54,738.71 L420.67,659.33 L341.29,657.46 L396.1,600 L341.29,542.54 L420.67,540.67 L422.54,461.29 L480,516.1 Z" fill="rgba(12,107,73,0.10)" stroke="#0c6b49" stroke-width="5.76" stroke-linejoin="round"/>
  <circle cx="480" cy="600" r="11.52" fill="#0c6b49"/>
</svg>