<svg xmlns="http://www.w3.org/2000/svg" viewBox="0 0 2400 1050" role="img">
  <defs>
    <linearGradient id="fade" x1="0" y1="0" x2="0" y2="1">
      <stop offset="0" stop-color="#ffffff" stop-opacity="0.9"/>
      <stop offset="0.28" stop-color="#ffffff" stop-opacity="0"/>
      <stop offset="0.72" stop-color="#ffffff" stop-opacity="0"/>
      <stop offset="1" stop-color="#ffffff" stop-opacity="0.9"/>
    </linearGradient>
  </defs>
  <rect width="2400" height="1050" fill="#ffffff"/>
  <g fill="none" stroke="#20241f" stroke-width="1.5" stroke-linejoin="round"><path d="M-94.7,-209.68 L-139.48,-176 L-94.7,-142.32 L-150.18,-150.18 L-142.32,-94.7 L-176,-139.48 L-209.68,-94.7 L-201.82,-150.18 L-257.3,-142.32 L-212.52,-176 L-257.3,-209.68 L-201.82,-201.82 L-209.68,-257.3 L-176,-212.52 L-142.32,-257.3 L-150.18,-201.82 Z"/><path d="M81.3,-209.68 L36.52,-176 L81.3,-142.32 L25.82,-150.18 L33.68,-94.7 L0,-139.48 L-33.68,-94.7 L-25.82,-150.18 L-81.3,-142.32 L-36.52,-176 L-81.3,-209.68 L-25.82,-201.82 L-33.68,-257.3 L0,-212.52 L33.68,-257.3 L25.82,-201.82 Z"/><path d="M257.3,-209.68 L212.52,-176 L257.3,-142.32 L201.82,-150.18 L209.68,-94.7 L176,-139.48 L142.32,-94.7 L150.18,-150.18 L94.7,-142.32 L139.48,-176 L94.7,-209.68 L150.18,-201.82 L142.32,-257.3 L176,-212.52 L209.68,-257.3 L201.82,-201.82 Z"/><path d="M433.3,-209.68 L388.52,-176 L433.3,-142.32 L377.82,-150.18 L385.68,-94.7 L352,-139.48 L318.32,-94.7 L326.18,-150.18 L270.7,-142.32 L315.48,-176 L270.7,-209.68 L326.18,-201.82 L318.32,-257.3 L352,-212.52 L385.68,-257.3 L377.82,-201.82 Z"/><path d="M609.3,-209.68 L564.52,-176 L609.3,-142.32 L553.82,-150.18 L561.68,-94.7 L528,-139.48 L494.32,-94.7 L502.18,-150.18 L446.7,-142.32 L491.48,-176 L446.7,-209.68 L502.18,-201.82 L494.32,-257.3 L528,-212.52 L561.68,-257.3 L553.82,-201.82 Z"/><path d="M785.3,-209.68 L740.52,-176 L785.3,-142.32 L729.82,-150.18 L737.68,-94.7 L704,-139.48 L670.32,-94.7 L678.18,-150.18 L622.7,-142.32 L667.48,-176 L622.7,-209.68 L678.18,-201.82 L670.32,-257.3 L704,-212.52 L737.68,-257.3 L729.82,-201.82 Z"/><path d="M961.3,-209.68 L916.52,-176 L961.3,-142.32 L905.82,-150.18 L913.68,-94.7 L880,-139.48 L846.32,-94.7 L854.18,-150.18 L798.7,-142.32 L843.48,-176 L798.7,-209.68 L854.18,-201.82 L846.32,-257.3 L880,-212.52 L913.68,-257.3 L905.82,-201.82 Z"/><path d="M1137.3,-209.68 L1092.52,-176 L1137.3,-142.32 L1081.82,-150.18 L1089.68,-94.7 L1056,-139.48 L1022.32,-94.7 L1030.18,-150.18 L974.7,-142.32 L1019.48,-176 L974.7,-209.68 L1030.18,-201.82 L1022.32,-257.3 L1056,-212.52 L1089.68,-257.3 L1081.82,-201.82 Z"/><path d="M1313.3,-209.68 L1268.52,-176 L1313.3,-142.32 L1257.82,-150.18 L1265.68,-94.7 L1232,-139.48 L1198.32,-94.7 L1206.18,-150.18 L1150.7,-142.32 L1195.48,-176 L1150.7,-209.68 L1206.18,-201.82 L1198.32,-257.3 L1232,-212.52 L1265.68,-257.3 L1257.82,-201.82 Z"/><path d="M1489.3,-209.68 L1444.52,-176 L1489.3,-142.32 L1433.82,-150.18 L1441.68,-94.7 L1408,-139.48 L1374.32,-94.7 L1382.18,-150.18 L1326.7,-142.32 L1371.48,-176 L1326.7,-209.68 L1382.18,-201.82 L1374.32,-257.3 L1408,-212.52 L1441.68,-257.3 L1433.82,-201.82 Z"/><path d="M1665.3,-209.68 L1620.52,-176 L1665.3,-142.32 L1609.82,-150.18 L1617.68,-94.7 L1584,-139.48 L1550.32,-94.7 L1558.18,-150.18 L1502.7,-142.32 L1547.48,-176 L1502.7,-209.68 L1558.18,-201.82 L1550.32,-257.3 L1584,-212.52 L1617.68,-257.3 L1609.82,-201.82 Z"/><path d="M1841.3,-209.68 L1796.52,-176 L1841.3,-142.32 L1785.82,-150.18 L1793.68,-94.7 L1760,-139.48 L1726.32,-94.7 L1734.18,-150.18 L1678.7,-142.32 L1723.48,-176 L1678.7,-209.68 L1734.18,-201.82 L1726.32,-257.3 L1760,-212.52 L1793.68,-257.3 L1785.82,-201.82 Z"/><path d="M2017.3,-209.68 L1972.52,-176 L2017.3,-142.32 L1961.82,-150.18 L1969.68,-94.7 L1936,-139.48 L1902.32,-94.7 L1910.18,-150.18 L1854.7,-142.32 L1899.48,-176 L1854.7,-209.68 L1910.18,-201.82 L1902.32,-257.3 L1936,-212.52 L1969.68,-257.3 L1961.82,-201.82 Z"/><path d="M2193.3,-209.68 L2148.52,-176 L2193.3,-142.32 L2137.82,-150.18 L2145.68,-94.7 L2112,-139.48 L2078.32,-94.7 L2086.18,-150.18 L2030.7,-142.32 L2075.48,-176 L2030.7,-209.68 L2086.18,-201.82 L2078.32,-257.3 L2112,-212.52 L2145.68,-257.3 L2137.82,-201.82 Z"/><path d="M2369.3,-209.68 L2324.52,-176 L2369.3,-142.32 L2313.82,-150.18 L2321.68,-94.7 L2288,-139.48 L2254.32,-94.7 L2262.18,-150.18 L2206.7,-142.32 L2251.48,-176 L2206.7,-209.68 L2262.18,-201.82 L2254.32,-257.3 L2288,-212.52 L2321.68,-257.3 L2313.82,-201.82 Z"/><path d="M2545.3,-209.68 L2500.52,-176 L2545.3,-142.32 L2489.82,-150.18 L2497.68,-94.7 L2464,-139.48 L2430.32,-94.7 L2438.18,-150.18 L2382.7,-142.32 L2427.48,-176 L2382.7,-209.68 L2438.18,-201.82 L2430.32,-257.3 L2464,-212.52 L2497.68,-257.3 L2489.82,-201.82 Z"/><path d="M2721.3,-209.68 L2676.52,-176 L2721.3,-142.32 L2665.82,-150.18 L2673.68,-94.7 L2640,-139.48 L2606.32,-94.7 L2614.18,-150.18 L2558.7,-142.32 L2603.48,-176 L2558.7,-209.68 L2614.18,-201.82 L2606.32,-257.3 L2640,-212.52 L2673.68,-257.3 L2665.82,-201.82 Z"/><path d="M-94.7,-33.68 L-139.48,0 L-94.7,33.68 L-150.18,25.82 L-142.32,81.3 L-176,36.52 L-209.68,81.3 L-201.82,25.82 L-257.3,33.68 L-212.52,0 L-257.3,-33.68 L-201.82,-25.82 L-209.68,-81.3 L-176,-36.52 L-142.32,-81.3 L-150.18,-25.82 Z"/><path d="M81.3,-33.68 L36.52,0 L81.3,33.68 L25.82,25.82 L33.68,81.3 L0,36.52 L-33.68,81.3 L-25.82,25.82 L-81.3,33.68 L-36.52,0 L-81.3,-33.68 L-25.82,-25.82 L-33.68,-81.3 L0,-36.52 L33.68,-81.3 L25.82,-25.82 Z"/><path d="M257.3,-33.68 L212.52,0 L257.3,33.68 L201.82,25.82 L209.68,81.3 L176,36.52 L142.32,81.3 L150.18,25.82 L94.7,33.68 L139.48,0 L94.7,-33.68 L150.18,-25.82 L142.32,-81.3 L176,-36.52 L209.68,-81.3 L201.82,-25.82 Z"/><path d="M433.3,-33.68 L388.52,0 L433.3,33.68 L377.82,25.82 L385.68,81.3 L352,36.52 L318.32,81.3 L326.18,25.82 L270.7,33.68 L315.48,0 L270.7,-33.68 L326.18,-25.82 L318.32,-81.3 L352,-36.52 L385.68,-81.3 L377.82,-25.82 Z"/><path d="M609.3,-33.68 L564.52,0 L609.3,33.68 L553.82,25.82 L561.68,81.3 L528,36.52 L494.32,81.3 L502.18,25.82 L446.7,33.68 L491.48,0 L446.7,-33.68 L502.18,-25.82 L494.32,-81.3 L528,-36.52 L561.68,-81.3 L553.82,-25.82 Z"/><path d="M785.3,-33.68 L740.52,0 L785.3,33.68 L729.82,25.82 L737.68,81.3 L704,36.52 L670.32,81.3 L678.18,25.82 L622.7,33.68 L667.48,0 L622.7,-33.68 L678.18,-25.82 L670.32,-81.3 L704,-36.52 L737.68,-81.3 L729.82,-25.82 Z"/><path d="M961.3,-33.68 L916.52,0 L961.3,33.68 L905.82,25.82 L913.68,81.3 L880,36.52 L846.32,81.3 L854.18,25.82 L798.7,33.68 L843.48,0 L798.7,-33.68 L854.18,-25.82 L846.32,-81.3 L880,-36.52 L913.68,-81.3 L905.82,-25.82 Z"/><path d="M1137.3,-33.68 L1092.52,0 L1137.3,33.68 L1081.82,25.82 L1089.68,81.3 L1056,36.52 L1022.32,81.3 L1030.18,25.82 L974.7,33.68 L1019.48,0 L974.7,-33.68 L1030.18,-25.82 L1022.32,-81.3 L1056,-36.52 L1089.68,-81.3 L1081.82,-25.82 Z"/><path d="M1313.3,-33.68 L1268.52,0 L1313.3,33.68 L1257.82,25.82 L1265.68,81.3 L1232,36.52 L1198.32,81.3 L1206.18,25.82 L1150.7,33.68 L1195.48,0 L1150.7,-33.68 L1206.18,-25.82 L1198.32,-81.3 L1232,-36.52 L1265.68,-81.3 L1257.82,-25.82 Z"/><path d="M1489.3,-33.68 L1444.52,0 L1489.3,33.68 L1433.82,25.82 L1441.68,81.3 L1408,36.52 L1374.32,81.3 L1382.18,25.82 L1326.7,33.68 L1371.48,0 L1326.7,-33.68 L1382.18,-25.82 L1374.32,-81.3 L1408,-36.52 L1441.68,-81.3 L1433.82,-25.82 Z"/><path d="M1665.3,-33.68 L1620.52,0 L1665.3,33.68 L1609.82,25.82 L1617.68,81.3 L1584,36.52 L1550.32,81.3 L1558.18,25.82 L1502.7,33.68 L1547.48,0 L1502.7,-33.68 L1558.18,-25.82 L1550.32,-81.3 L1584,-36.52 L1617.68,-81.3 L1609.82,-25.82 Z"/><path d="M1841.3,-33.68 L1796.52,0 L1841.3,33.68 L1785.82,25.82 L1793.68,81.3 L1760,36.52 L1726.32,81.3 L1734.18,25.82 L1678.7,33.68 L1723.48,0 L1678.7,-33.68 L1734.18,-25.82 L1726.32,-81.3 L1760,-36.52 L1793.68,-81.3 L1785.82,-25.82 Z"/><path d="M2017.3,-33.68 L1972.52,0 L2017.3,33.68 L1961.82,25.82 L1969.68,81.3 L1936,36.52 L1902.32,81.3 L1910.18,25.82 L1854.7,33.68 L1899.48,0 L1854.7,-33.68 L1910.18,-25.82 L1902.32,-81.3 L1936,-36.52 L1969.68,-81.3 L1961.82,-25.82 Z"/><path d="M2193.3,-33.68 L2148.52,0 L2193.3,33.68 L2137.82,25.82 L2145.68,81.3 L2112,36.52 L2078.32,81.3 L2086.18,25.82 L2030.7,33.68 L2075.48,0 L2030.7,-33.68 L2086.18,-25.82 L2078.32,-81.3 L2112,-36.52 L2145.68,-81.3 L2137.82,-25.82 Z"/><path d="M2369.3,-33.68 L2324.52,0 L2369.3,33.68 L2313.82,25.82 L2321.68,81.3 L2288,36.52 L2254.32,81.3 L2262.18,25.82 L2206.7,33.68 L2251.48,0 L2206.7,-33.68 L2262.18,-25.82 L2254.32,-81.3 L2288,-36.52 L2321.68,-81.3 L2313.82,-25.82 Z"/><path d="M2545.3,-33.68 L2500.52,0 L2545.3,33.68 L2489.82,25.82 L2497.68,81.3 L2464,36.52 L2430.32,81.3 L2438.18,25.82 L2382.7,33.68 L2427.48,0 L2382.7,-33.68 L2438.18,-25.82 L2430.32,-81.3 L2464,-36.52 L2497.68,-81.3 L2489.82,-25.82 Z"/><path d="M2721.3,-33.68 L2676.52,0 L2721.3,33.68 L2665.82,25.82 L2673.68,81.3 L2640,36.52 L2606.32,81.3 L2614.18,25.82 L2558.7,33.68 L2603.48,0 L2558.7,-33.68 L2614.18,-25.82 L2606.32,-81.3 L2640,-36.52 L2673.68,-81.3 L2665.82,-25.82 Z"/><path d="M-94.7,142.32 L-139.48,176 L-94.7,209.68 L-150.18,201.82 L-142.32,257.3 L-176,212.52 L-209.68,257.3 L-201.82,201.82 L-257.3,209.68 L-212.52,176 L-257.3,142.32 L-201.82,150.18 L-209.68,94.7 L-176,139.48 L-142.32,94.7 L-150.18,150.18 Z"/><path d="M81.3,142.32 L36.52,176 L81.3,209.68 L25.82,201.82 L33.68,257.3 L0,212.52 L-33.68,257.3 L-25.82,201.82 L-81.3,209.68 L-36.52,176 L-81.3,142.32 L-25.82,150.18 L-33.68,94.7 L0,139.48 L33.68,94.7 L25.82,150.18 Z"/><path d="M257.3,142.32 L212.52,176 L257.3,209.68 L201.82,201.82 L209.68,257.3 L176,212.52 L142.32,257.3 L150.18,201.82 L94.7,209.68 L139.48,176 L94.7,142.32 L150.18,150.18 L142.32,94.7 L176,139.48 L209.68,94.7 L201.82,150.18 Z"/><path d="M433.3,142.32 L388.52,176 L433.3,209.68 L377.82,201.82 L385.68,257.3 L352,212.52 L318.32,257.3 L326.18,201.82 L270.7,209.68 L315.48,176 L270.7,142.32 L326.18,150.18 L318.32,94.7 L352,139.48 L385.68,94.7 L377.82,150.18 Z"/><path d="M609.3,142.32 L564.52,176 L609.3,209.68 L553.82,201.82 L561.68,257.3 L528,212.52 L494.32,257.3 L502.18,201.82 L446.7,209.68 L491.48,176 L446.7,142.32 L502.18,150.18 L494.32,94.7 L528,139.48 L561.68,94.7 L553.82,150.18 Z"/><path d="M785.3,142.32 L740.52,176 L785.3,209.68 L729.82,201.82 L737.68,257.3 L704,212.52 L670.32,257.3 L678.18,201.82 L622.7,209.68 L667.48,176 L622.7,142.32 L678.18,150.18 L670.32,94.7 L704,139.48 L737.68,94.7 L729.82,150.18 Z"/><path d="M961.3,142.32 L916.52,176 L961.3,209.68 L905.82,201.82 L913.68,257.3 L880,212.52 L846.32,257.3 L854.18,201.82 L798.7,209.68 L843.48,176 L798.7,142.32 L854.18,150.18 L846.32,94.7 L880,139.48 L913.68,94.7 L905.82,150.18 Z"/><path d="M1137.3,142.32 L1092.52,176 L1137.3,209.68 L1081.82,201.82 L1089.68,257.3 L1056,212.52 L1022.32,257.3 L1030.18,201.82 L974.7,209.68 L1019.48,176 L974.7,142.32 L1030.18,150.18 L1022.32,94.7 L1056,139.48 L1089.68,94.7 L1081.82,150.18 Z"/><path d="M1313.3,142.32 L1268.52,176 L1313.3,209.68 L1257.82,201.82 L1265.68,257.3 L1232,212.52 L1198.32,257.3 L1206.18,201.82 L1150.7,209.68 L1195.48,176 L1150.7,142.32 L1206.18,150.18 L1198.32,94.7 L1232,139.48 L1265.68,94.7 L1257.82,150.18 Z"/><path d="M1489.3,142.32 L1444.52,176 L1489.3,209.68 L1433.82,201.82 L1441.68,257.3 L1408,212.52 L1374.32,257.3 L1382.18,201.82 L1326.7,209.68 L1371.48,176 L1326.7,142.32 L1382.18,150.18 L1374.32,94.7 L1408,139.48 L1441.68,94.7 L1433.82,150.18 Z"/><path d="M1665.3,142.32 L1620.52,176 L1665.3,209.68 L1609.82,201.82 L1617.68,257.3 L1584,212.52 L1550.32,257.3 L1558.18,201.82 L1502.7,209.68 L1547.48,176 L1502.7,142.32 L1558.18,150.18 L1550.32,94.7 L1584,139.48 L1617.68,94.7 L1609.82,150.18 Z"/><path d="M1841.3,142.32 L1796.52,176 L1841.3,209.68 L1785.82,201.82 L1793.68,257.3 L1760,212.52 L1726.32,257.3 L1734.18,201.82 L1678.7,209.68 L1723.48,176 L1678.7,142.32 L1734.18,150.18 L1726.32,94.7 L1760,139.48 L1793.68,94.7 L1785.82,150.18 Z"/><path d="M2017.3,142.32 L1972.52,176 L2017.3,209.68 L1961.82,201.82 L1969.68,257.3 L1936,212.52 L1902.32,257.3 L1910.18,201.82 L1854.7,209.68 L1899.48,176 L1854.7,142.32 L1910.18,150.18 L1902.32,94.7 L1936,139.48 L1969.68,94.7 L1961.82,150.18 Z"/><path d="M2193.3,142.32 L2148.52,176 L2193.3,209.68 L2137.82,201.82 L2145.68,257.3 L2112,212.52 L2078.32,257.3 L2086.18,201.82 L2030.7,209.68 L2075.48,176 L2030.7,142.32 L2086.18,150.18 L2078.32,94.7 L2112,139.48 L2145.68,94.7 L2137.82,150.18 Z"/><path d="M2369.3,142.32 L2324.52,176 L2369.3,209.68 L2313.82,201.82 L2321.68,257.3 L2288,212.52 L2254.32,257.3 L2262.18,201.82 L2206.7,209.68 L2251.48,176 L2206.7,142.32 L2262.18,150.18 L2254.32,94.7 L2288,139.48 L2321.68,94.7 L2313.82,150.18 Z"/><path d="M2545.3,142.32 L2500.52,176 L2545.3,209.68 L2489.82,201.82 L2497.68,257.3 L2464,212.52 L2430.32,257.3 L2438.18,201.82 L2382.7,209.68 L2427.48,176 L2382.7,142.32 L2438.18,150.18 L2430.32,94.7 L2464,139.48 L2497.68,94.7 L2489.82,150.18 Z"/><path d="M2721.3,142.32 L2676.52,176 L2721.3,209.68 L2665.82,201.82 L2673.68,257.3 L2640,212.52 L2606.32,257.3 L2614.18,201.82 L2558.7,209.68 L2603.48,176 L2558.7,142.32 L2614.18,150.18 L2606.32,94.7 L2640,139.48 L2673.68,94.7 L2665.82,150.18 Z"/><path d="M-94.7,318.32 L-139.48,352 L-94.7,385.68 L-150.18,377.82 L-142.32,433.3 L-176,388.52 L-209.68,433.3 L-201.82,377.82 L-257.3,385.68 L-212.52,352 L-257.3,318.32 L-201.82,326.18 L-209.68,270.7 L-176,315.48 L-142.32,270.7 L-150.18,326.18 Z"/><path d="M81.3,318.32 L36.52,352 L81.3,385.68 L25.82,377.82 L33.68,433.3 L0,388.52 L-33.68,433.3 L-25.82,377.82 L-81.3,385.68 L-36.52,352 L-81.3,318.32 L-25.82,326.18 L-33.68,270.7 L0,315.48 L33.68,270.7 L25.82,326.18 Z"/><path d="M257.3,318.32 L212.52,352 L257.3,385.68 L201.82,377.82 L209.68,433.3 L176,388.52 L142.32,433.3 L150.18,377.82 L94.7,385.68 L139.48,352 L94.7,318.32 L150.18,326.18 L142.32,270.7 L176,315.48 L209.68,270.7 L201.82,326.18 Z"/><path d="M433.3,318.32 L388.52,352 L433.3,385.68 L377.82,377.82 L385.68,433.3 L352,388.52 L318.32,433.3 L326.18,377.82 L270.7,385.68 L315.48,352 L270.7,318.32 L326.18,326.18 L318.32,270.7 L352,315.48 L385.68,270.7 L377.82,326.18 Z"/><path d="M609.3,318.32 L564.52,352 L609.3,385.68 L553.82,377.82 L561.68,433.3 L528,388.52 L494.32,433.3 L502.18,377.82 L446.7,385.68 L491.48,352 L446.7,318.32 L502.18,326.18 L494.32,270.7 L528,315.48 L561.68,270.7 L553.82,326.18 Z"/><path d="M785.3,318.32 L740.52,352 L785.3,385.68 L729.82,377.82 L737.68,433.3 L704,388.52 L670.32,433.3 L678.18,377.82 L622.7,385.68 L667.48,352 L622.7,318.32 L678.18,326.18 L670.32,270.7 L704,315.48 L737.68,270.7 L729.82,326.18 Z"/><path d="M961.3,318.32 L916.52,352 L961.3,385.68 L905.82,377.82 L913.68,433.3 L880,388.52 L846.32,433.3 L854.18,377.82 L798.7,385.68 L843.48,352 L798.7,318.32 L854.18,326.18 L846.32,270.7 L880,315.48 L913.68,270.7 L905.82,326.18 Z"/><path d="M1137.3,318.32 L1092.52,352 L1137.3,385.68 L1081.82,377.82 L1089.68,433.3 L1056,388.52 L1022.32,433.3 L1030.18,377.82 L974.7,385.68 L1019.48,352 L974.7,318.32 L1030.18,326.18 L1022.32,270.7 L1056,315.48 L1089.68,270.7 L1081.82,326.18 Z"/><path d="M1313.3,318.32 L1268.52,352 L1313.3,385.68 L1257.82,377.82 L1265.68,433.3 L1232,388.52 L1198.32,433.3 L1206.18,377.82 L1150.7,385.68 L1195.48,352 L1150.7,318.32 L1206.18,326.18 L1198.32,270.7 L1232,315.48 L1265.68,270.7 L1257.82,326.18 Z"/><path d="M1489.3,318.32 L1444.52,352 L1489.3,385.68 L1433.82,377.82 L1441.68,433.3 L1408,388.52 L1374.32,433.3 L1382.18,377.82 L1326.7,385.68 L1371.48,352 L1326.7,318.32 L1382.18,326.18 L1374.32,270.7 L1408,315.48 L1441.68,270.7 L1433.82,326.18 Z"/><path d="M1665.3,318.32 L1620.52,352 L1665.3,385.68 L1609.82,377.82 L1617.68,433.3 L1584,388.52 L1550.32,433.3 L1558.18,377.82 L1502.7,385.68 L1547.48,352 L1502.7,318.32 L1558.18,326.18 L1550.32,270.7 L1584,315.48 L1617.68,270.7 L1609.82,326.18 Z"/><path d="M1841.3,318.32 L1796.52,352 L1841.3,385.68 L1785.82,377.82 L1793.68,433.3 L1760,388.52 L1726.32,433.3 L1734.18,377.82 L1678.7,385.68 L1723.48,352 L1678.7,318.32 L1734.18,326.18 L1726.32,270.7 L1760,315.48 L1793.68,270.7 L1785.82,326.18 Z"/><path d="M2017.3,318.32 L1972.52,352 L2017.3,385.68 L1961.82,377.82 L1969.68,433.3 L1936,388.52 L1902.32,433.3 L1910.18,377.82 L1854.7,385.68 L1899.48,352 L1854.7,318.32 L1910.18,326.18 L1902.32,270.7 L1936,315.48 L1969.68,270.7 L1961.82,326.18 Z"/><path d="M2193.3,318.32 L2148.52,352 L2193.3,385.68 L2137.82,377.82 L2145.68,433.3 L2112,388.52 L2078.32,433.3 L2086.18,377.82 L2030.7,385.68 L2075.48,352 L2030.7,318.32 L2086.18,326.18 L2078.32,270.7 L2112,315.48 L2145.68,270.7 L2137.82,326.18 Z"/><path d="M2369.3,318.32 L2324.52,352 L2369.3,385.68 L2313.82,377.82 L2321.68,433.3 L2288,388.52 L2254.32,433.3 L2262.18,377.82 L2206.7,385.68 L2251.48,352 L2206.7,318.32 L2262.18,326.18 L2254.32,270.7 L2288,315.48 L2321.68,270.7 L2313.82,326.18 Z"/><path d="M2545.3,318.32 L2500.52,352 L2545.3,385.68 L2489.82,377.82 L2497.68,433.3 L2464,388.52 L2430.32,433.3 L2438.18,377.82 L2382.7,385.68 L2427.48,352 L2382.7,318.32 L2438.18,326.18 L2430.32,270.7 L2464,315.48 L2497.68,270.7 L2489.82,326.18 Z"/><path d="M2721.3,318.32 L2676.52,352 L2721.3,385.68 L2665.82,377.82 L2673.68,433.3 L2640,388.52 L2606.32,433.3 L2614.18,377.82 L2558.7,385.68 L2603.48,352 L2558.7,318.32 L2614.18,326.18 L2606.32,270.7 L2640,315.48 L2673.68,270.7 L2665.82,326.18 Z"/><path d="M-94.7,494.32 L-139.48,528 L-94.7,561.68 L-150.18,553.82 L-142.32,609.3 L-176,564.52 L-209.68,609.3 L-201.82,553.82 L-257.3,561.68 L-212.52,528 L-257.3,494.32 L-201.82,502.18 L-209.68,446.7 L-176,491.48 L-142.32,446.7 L-150.18,502.18 Z"/><path d="M81.3,494.32 L36.52,528 L81.3,561.68 L25.82,553.82 L33.68,609.3 L0,564.52 L-33.68,609.3 L-25.82,553.82 L-81.3,561.68 L-36.52,528 L-81.3,494.32 L-25.82,502.18 L-33.68,446.7 L0,491.48 L33.68,446.7 L25.82,502.18 Z"/><path d="M257.3,494.32 L212.52,528 L257.3,561.68 L201.82,553.82 L209.68,609.3 L176,564.52 L142.32,609.3 L150.18,553.82 L94.7,561.68 L139.48,528 L94.7,494.32 L150.18,502.18 L142.32,446.7 L176,491.48 L209.68,446.7 L201.82,502.18 Z"/><path d="M433.3,494.32 L388.52,528 L433.3,561.68 L377.82,553.82 L385.68,609.3 L352,564.52 L318.32,609.3 L326.18,553.82 L270.7,561.68 L315.48,528 L270.7,494.32 L326.18,502.18 L318.32,446.7 L352,491.48 L385.68,446.7 L377.82,502.18 Z"/><path d="M609.3,494.32 L564.52,528 L609.3,561.68 L553.82,553.82 L561.68,609.3 L528,564.52 L494.32,609.3 L502.18,553.82 L446.7,561.68 L491.48,528 L446.7,494.32 L502.18,502.18 L494.32,446.7 L528,491.48 L561.68,446.7 L553.82,502.18 Z"/><path d="M785.3,494.32 L740.52,528 L785.3,561.68 L729.82,553.82 L737.68,609.3 L704,564.52 L670.32,609.3 L678.18,553.82 L622.7,561.68 L667.48,528 L622.7,494.32 L678.18,502.18 L670.32,446.7 L704,491.48 L737.68,446.7 L729.82,502.18 Z"/><path d="M961.3,494.32 L916.52,528 L961.3,561.68 L905.82,553.82 L913.68,609.3 L880,564.52 L846.32,609.3 L854.18,553.82 L798.7,561.68 L843.48,528 L798.7,494.32 L854.18,502.18 L846.32,446.7 L880,491.48 L913.68,446.7 L905.82,502.18 Z"/><path d="M1137.3,494.32 L1092.52,528 L1137.3,561.68 L1081.82,553.82 L1089.68,609.3 L1056,564.52 L1022.32,609.3 L1030.18,553.82 L974.7,561.68 L1019.48,528 L974.7,494.32 L1030.18,502.18 L1022.32,446.7 L1056,491.48 L1089.68,446.7 L1081.82,502.18 Z"/><path d="M1313.3,494.32 L1268.52,528 L1313.3,561.68 L1257.82,553.82 L1265.68,609.3 L1232,564.52 L1198.32,609.3 L1206.18,553.82 L1150.7,561.68 L1195.48,528 L1150.7,494.32 L1206.18,502.18 L1198.32,446.7 L1232,491.48 L1265.68,446.7 L1257.82,502.18 Z"/><path d="M1489.3,494.32 L1444.52,528 L1489.3,561.68 L1433.82,553.82 L1441.68,609.3 L1408,564.52 L1374.32,609.3 L1382.18,553.82 L1326.7,561.68 L1371.48,528 L1326.7,494.32 L1382.18,502.18 L1374.32,446.7 L1408,491.48 L1441.68,446.7 L1433.82,502.18 Z"/><path d="M1665.3,494.32 L1620.52,528 L1665.3,561.68 L1609.82,553.82 L1617.68,609.3 L1584,564.52 L1550.32,609.3 L1558.18,553.82 L1502.7,561.68 L1547.48,528 L1502.7,494.32 L1558.18,502.18 L1550.32,446.7 L1584,491.48 L1617.68,446.7 L1609.82,502.18 Z"/><path d="M1841.3,494.32 L1796.52,528 L1841.3,561.68 L1785.82,553.82 L1793.68,609.3 L1760,564.52 L1726.32,609.3 L1734.18,553.82 L1678.7,561.68 L1723.48,528 L1678.7,494.32 L1734.18,502.18 L1726.32,446.7 L1760,491.48 L1793.68,446.7 L1785.82,502.18 Z"/><path d="M2017.3,494.32 L1972.52,528 L2017.3,561.68 L1961.82,553.82 L1969.68,609.3 L1936,564.52 L1902.32,609.3 L1910.18,553.82 L1854.7,561.68 L1899.48,528 L1854.7,494.32 L1910.18,502.18 L1902.32,446.7 L1936,491.48 L1969.68,446.7 L1961.82,502.18 Z"/><path d="M2193.3,494.32 L2148.52,528 L2193.3,561.68 L2137.82,553.82 L2145.68,609.3 L2112,564.52 L2078.32,609.3 L2086.18,553.82 L2030.7,561.68 L2075.48,528 L2030.7,494.32 L2086.18,502.18 L2078.32,446.7 L2112,491.48 L2145.68,446.7 L2137.82,502.18 Z"/><path d="M2369.3,494.32 L2324.52,528 L2369.3,561.68 L2313.82,553.82 L2321.68,609.3 L2288,564.52 L2254.32,609.3 L2262.18,553.82 L2206.7,561.68 L2251.48,528 L2206.7,494.32 L2262.18,502.18 L2254.32,446.7 L2288,491.48 L2321.68,446.7 L2313.82,502.18 Z"/><path d="M2545.3,494.32 L2500.52,528 L2545.3,561.68 L2489.82,553.82 L2497.68,609.3 L2464,564.52 L2430.32,609.3 L2438.18,553.82 L2382.7,561.68 L2427.48,528 L2382.7,494.32 L2438.18,502.18 L2430.32,446.7 L2464,491.48 L2497.68,446.7 L2489.82,502.18 Z"/><path d="M2721.3,494.32 L2676.52,528 L2721.3,561.68 L2665.82,553.82 L2673.68,609.3 L2640,564.52 L2606.32,609.3 L2614.18,553.82 L2558.7,561.68 L2603.48,528 L2558.7,494.32 L2614.18,502.18 L2606.32,446.7 L2640,491.48 L2673.68,446.7 L2665.82,502.18 Z"/><path d="M-94.7,670.32 L-139.48,704 L-94.7,737.68 L-150.18,729.82 L-142.32,785.3 L-176,740.52 L-209.68,785.3 L-201.82,729.82 L-257.3,737.68 L-212.52,704 L-257.3,670.32 L-201.82,678.18 L-209.68,622.7 L-176,667.48 L-142.32,622.7 L-150.18,678.18 Z"/><path d="M81.3,670.32 L36.52,704 L81.3,737.68 L25.82,729.82 L33.68,785.3 L0,740.52 L-33.68,785.3 L-25.82,729.82 L-81.3,737.68 L-36.52,704 L-81.3,670.32 L-25.82,678.18 L-33.68,622.7 L0,667.48 L33.68,622.7 L25.82,678.18 Z"/><path d="M257.3,670.32 L212.52,704 L257.3,737.68 L201.82,729.82 L209.68,785.3 L176,740.52 L142.32,785.3 L150.18,729.82 L94.7,737.68 L139.48,704 L94.7,670.32 L150.18,678.18 L142.32,622.7 L176,667.48 L209.68,622.7 L201.82,678.18 Z"/><path d="M433.3,670.32 L388.52,704 L433.3,737.68 L377.82,729.82 L385.68,785.3 L352,740.52 L318.32,785.3 L326.18,729.82 L270.7,737.68 L315.48,704 L270.7,670.32 L326.18,678.18 L318.32,622.7 L352,667.48 L385.68,622.7 L377.82,678.18 Z"/><path d="M609.3,670.32 L564.52,704 L609.3,737.68 L553.82,729.82 L561.68,785.3 L528,740.52 L494.32,785.3 L502.18,729.82 L446.7,737.68 L491.48,704 L446.7,670.32 L502.18,678.18 L494.32,622.7 L528,667.48 L561.68,622.7 L553.82,678.18 Z"/><path d="M785.3,670.32 L740.52,704 L785.3,737.68 L729.82,729.82 L737.68,785.3 L704,740.52 L670.32,785.3 L678.18,729.82 L622.7,737.68 L667.48,704 L622.7,670.32 L678.18,678.18 L670.32,622.7 L704,667.48 L737.68,622.7 L729.82,678.18 Z"/><path d="M961.3,670.32 L916.52,704 L961.3,737.68 L905.82,729.82 L913.68,785.3 L880,740.52 L846.32,785.3 L854.18,729.82 L798.7,737.68 L843.48,704 L798.7,670.32 L854.18,678.18 L846.32,622.7 L880,667.48 L913.68,622.7 L905.82,678.18 Z"/><path d="M1137.3,670.32 L1092.52,704 L1137.3,737.68 L1081.82,729.82 L1089.68,785.3 L1056,740.52 L1022.32,785.3 L1030.18,729.82 L974.7,737.68 L1019.48,704 L974.7,670.32 L1030.18,678.18 L1022.32,622.7 L1056,667.48 L1089.68,622.7 L1081.82,678.18 Z"/><path d="M1313.3,670.32 L1268.52,704 L1313.3,737.68 L1257.82,729.82 L1265.68,785.3 L1232,740.52 L1198.32,785.3 L1206.18,729.82 L1150.7,737.68 L1195.48,704 L1150.7,670.32 L1206.18,678.18 L1198.32,622.7 L1232,667.48 L1265.68,622.7 L1257.82,678.18 Z"/><path d="M1489.3,670.32 L1444.52,704 L1489.3,737.68 L1433.82,729.82 L1441.68,785.3 L1408,740.52 L1374.32,785.3 L1382.18,729.82 L1326.7,737.68 L1371.48,704 L1326.7,670.32 L1382.18,678.18 L1374.32,622.7 L1408,667.48 L1441.68,622.7 L1433.82,678.18 Z"/><path d="M1665.3,670.32 L1620.52,704 L1665.3,737.68 L1609.82,729.82 L1617.68,785.3 L1584,740.52 L1550.32,785.3 L1558.18,729.82 L1502.7,737.68 L1547.48,704 L1502.7,670.32 L1558.18,678.18 L1550.32,622.7 L1584,667.48 L1617.68,622.7 L1609.82,678.18 Z"/><path d="M1841.3,670.32 L1796.52,704 L1841.3,737.68 L1785.82,729.82 L1793.68,785.3 L1760,740.52 L1726.32,785.3 L1734.18,729.82 L1678.7,737.68 L1723.48,704 L1678.7,670.32 L1734.18,678.18 L1726.32,622.7 L1760,667.48 L1793.68,622.7 L1785.82,678.18 Z"/><path d="M2017.3,670.32 L1972.52,704 L2017.3,737.68 L1961.82,729.82 L1969.68,785.3 L1936,740.52 L1902.32,785.3 L1910.18,729.82 L1854.7,737.68 L1899.48,704 L1854.7,670.32 L1910.18,678.18 L1902.32,622.7 L1936,667.48 L1969.68,622.7 L1961.82,678.18 Z"/><path d="M2193.3,670.32 L2148.52,704 L2193.3,737.68 L2137.82,729.82 L2145.68,785.3 L2112,740.52 L2078.32,785.3 L2086.18,729.82 L2030.7,737.68 L2075.48,704 L2030.7,670.32 L2086.18,678.18 L2078.32,622.7 L2112,667.48 L2145.68,622.7 L2137.82,678.18 Z"/><path d="M2369.3,670.32 L2324.52,704 L2369.3,737.68 L2313.82,729.82 L2321.68,785.3 L2288,740.52 L2254.32,785.3 L2262.18,729.82 L2206.7,737.68 L2251.48,704 L2206.7,670.32 L2262.18,678.18 L2254.32,622.7 L2288,667.48 L2321.68,622.7 L2313.82,678.18 Z"/><path d="M2545.3,670.32 L2500.52,704 L2545.3,737.68 L2489.82,729.82 L2497.68,785.3 L2464,740.52 L2430.32,785.3 L2438.18,729.82 L2382.7,737.68 L2427.48,704 L2382.7,670.32 L2438.18,678.18 L2430.32,622.7 L2464,667.48 L2497.68,622.7 L2489.82,678.18 Z"/><path d="M2721.3,670.32 L2676.52,704 L2721.3,737.68 L2665.82,729.82 L2673.68,785.3 L2640,740.52 L2606.32,785.3 L2614.18,729.82 L2558.7,737.68 L2603.48,704 L2558.7,670.32 L2614.18,678.18 L2606.32,622.7 L2640,667.48 L2673.68,622.7 L2665.82,678.18 Z"/><path d="M-94.7,846.32 L-139.48,880 L-94.7,913.68 L-150.18,905.82 L-142.32,961.3 L-176,916.52 L-209.68,961.3 L-201.82,905.82 L-257.3,913.68 L-212.52,880 L-257.3,846.32 L-201.82,854.18 L-209.68,798.7 L-176,843.48 L-142.32,798.7 L-150.18,854.18 Z"/><path d="M81.3,846.32 L36.52,880 L81.3,913.68 L25.82,905.82 L33.68,961.3 L0,916.52 L-33.68,961.3 L-25.82,905.82 L-81.3,913.68 L-36.52,880 L-81.3,846.32 L-25.82,854.18 L-33.68,798.7 L0,843.48 L33.68,798.7 L25.82,854.18 Z"/><path d="M257.3,846.32 L212.52,880 L257.3,913.68 L201.82,905.82 L209.68,961.3 L176,916.52 L142.32,961.3 L150.18,905.82 L94.7,913.68 L139.48,880 L94.7,846.32 L150.18,854.18 L142.32,798.7 L176,843.48 L209.68,798.7 L201.82,854.18 Z"/><path d="M433.3,846.32 L388.52,880 L433.3,913.68 L377.82,905.82 L385.68,961.3 L352,916.52 L318.32,961.3 L326.18,905.82 L270.7,913.68 L315.48,880 L270.7,846.32 L326.18,854.18 L318.32,798.7 L352,843.48 L385.68,798.7 L377.82,854.18 Z"/><path d="M609.3,846.32 L564.52,880 L609.3,913.68 L553.82,905.82 L561.68,961.3 L528,916.52 L494.32,961.3 L502.18,905.82 L446.7,913.68 L491.48,880 L446.7,846.32 L502.18,854.18 L494.32,798.7 L528,843.48 L561.68,798.7 L553.82,854.18 Z"/><path d="M785.3,846.32 L740.52,880 L785.3,913.68 L729.82,905.82 L737.68,961.3 L704,916.52 L670.32,961.3 L678.18,905.82 L622.7,913.68 L667.48,880 L622.7,846.32 L678.18,854.18 L670.32,798.7 L704,843.48 L737.68,798.7 L729.82,854.18 Z"/><path d="M961.3,846.32 L916.52,880 L961.3,913.68 L905.82,905.82 L913.68,961.3 L880,916.52 L846.32,961.3 L854.18,905.82 L798.7,913.68 L843.48,880 L798.7,846.32 L854.18,854.18 L846.32,798.7 L880,843.48 L913.68,798.7 L905.82,854.18 Z"/><path d="M1137.3,846.32 L1092.52,880 L1137.3,913.68 L1081.82,905.82 L1089.68,961.3 L1056,916.52 L1022.32,961.3 L1030.18,905.82 L974.7,913.68 L1019.48,880 L974.7,846.32 L1030.18,854.18 L1022.32,798.7 L1056,843.48 L1089.68,798.7 L1081.82,854.18 Z"/><path d="M1313.3,846.32 L1268.52,880 L1313.3,913.68 L1257.82,905.82 L1265.68,961.3 L1232,916.52 L1198.32,961.3 L1206.18,905.82 L1150.7,913.68 L1195.48,880 L1150.7,846.32 L1206.18,854.18 L1198.32,798.7 L1232,843.48 L1265.68,798.7 L1257.82,854.18 Z"/><path d="M1489.3,846.32 L1444.52,880 L1489.3,913.68 L1433.82,905.82 L1441.68,961.3 L1408,916.52 L1374.32,961.3 L1382.18,905.82 L1326.7,913.68 L1371.48,880 L1326.7,846.32 L1382.18,854.18 L1374.32,798.7 L1408,843.48 L1441.68,798.7 L1433.82,854.18 Z"/><path d="M1665.3,846.32 L1620.52,880 L1665.3,913.68 L1609.82,905.82 L1617.68,961.3 L1584,916.52 L1550.32,961.3 L1558.18,905.82 L1502.7,913.68 L1547.48,880 L1502.7,846.32 L1558.18,854.18 L1550.32,798.7 L1584,843.48 L1617.68,798.7 L1609.82,854.18 Z"/><path d="M1841.3,846.32 L1796.52,880 L1841.3,913.68 L1785.82,905.82 L1793.68,961.3 L1760,916.52 L1726.32,961.3 L1734.18,905.82 L1678.7,913.68 L1723.48,880 L1678.7,846.32 L1734.18,854.18 L1726.32,798.7 L1760,843.48 L1793.68,798.7 L1785.82,854.18 Z"/><path d="M2017.3,846.32 L1972.52,880 L2017.3,913.68 L1961.82,905.82 L1969.68,961.3 L1936,916.52 L1902.32,961.3 L1910.18,905.82 L1854.7,913.68 L1899.48,880 L1854.7,846.32 L1910.18,854.18 L1902.32,798.7 L1936,843.48 L1969.68,798.7 L1961.82,854.18 Z"/><path d="M2193.3,846.32 L2148.52,880 L2193.3,913.68 L2137.82,905.82 L2145.68,961.3 L2112,916.52 L2078.32,961.3 L2086.18,905.82 L2030.7,913.68 L2075.48,880 L2030.7,846.32 L2086.18,854.18 L2078.32,798.7 L2112,843.48 L2145.68,798.7 L2137.82,854.18 Z"/><path d="M2369.3,846.32 L2324.52,880 L2369.3,913.68 L2313.82,905.82 L2321.68,961.3 L2288,916.52 L2254.32,961.3 L2262.18,905.82 L2206.7,913.68 L2251.48,880 L2206.7,846.32 L2262.18,854.18 L2254.32,798.7 L2288,843.48 L2321.68,798.7 L2313.82,854.18 Z"/><path d="M2545.3,846.32 L2500.52,880 L2545.3,913.68 L2489.82,905.82 L2497.68,961.3 L2464,916.52 L2430.32,961.3 L2438.18,905.82 L2382.7,913.68 L2427.48,880 L2382.7,846.32 L2438.18,854.18 L2430.32,798.7 L2464,843.48 L2497.68,798.7 L2489.82,854.18 Z"/><path d="M2721.3,846.32 L2676.52,880 L2721.3,913.68 L2665.82,905.82 L2673.68,961.3 L2640,916.52 L2606.32,961.3 L2614.18,905.82 L2558.7,913.68 L2603.48,880 L2558.7,846.32 L2614.18,854.18 L2606.32,798.7 L2640,843.48 L2673.68,798.7 L2665.82,854.18 Z"/><path d="M-94.7,1022.32 L-139.48,1056 L-94.7,1089.68 L-150.18,1081.82 L-142.32,1137.3 L-176,1092.52 L-209.68,1137.3 L-201.82,1081.82 L-257.3,1089.68 L-212.52,1056 L-257.3,1022.32 L-201.82,1030.18 L-209.68,974.7 L-176,1019.48 L-142.32,974.7 L-150.18,1030.18 Z"/><path d="M81.3,1022.32 L36.52,1056 L81.3,1089.68 L25.82,1081.82 L33.68,1137.3 L0,1092.52 L-33.68,1137.3 L-25.82,1081.82 L-81.3,1089.68 L-36.52,1056 L-81.3,1022.32 L-25.82,1030.18 L-33.68,974.7 L0,1019.48 L33.68,974.7 L25.82,1030.18 Z"/><path d="M257.3,1022.32 L212.52,1056 L257.3,1089.68 L201.82,1081.82 L209.68,1137.3 L176,1092.52 L142.32,1137.3 L150.18,1081.82 L94.7,1089.68 L139.48,1056 L94.7,1022.32 L150.18,1030.18 L142.32,974.7 L176,1019.48 L209.68,974.7 L201.82,1030.18 Z"/><path d="M433.3,1022.32 L388.52,1056 L433.3,1089.68 L377.82,1081.82 L385.68,1137.3 L352,1092.52 L318.32,1137.3 L326.18,1081.82 L270.7,1089.68 L315.48,1056 L270.7,1022.32 L326.18,1030.18 L318.32,974.7 L352,1019.48 L385.68,974.7 L377.82,1030.18 Z"/><path d="M609.3,1022.32 L564.52,1056 L609.3,1089.68 L553.82,1081.82 L561.68,1137.3 L528,1092.52 L494.32,1137.3 L502.18,1081.82 L446.7,1089.68 L491.48,1056 L446.7,1022.32 L502.18,1030.18 L494.32,974.7 L528,1019.48 L561.68,974.7 L553.82,1030.18 Z"/><path d="M785.3,1022.32 L740.52,1056 L785.3,1089.68 L729.82,1081.82 L737.68,1137.3 L704,1092.52 L670.32,1137.3 L678.18,1081.82 L622.7,1089.68 L667.48,1056 L622.7,1022.32 L678.18,1030.18 L670.32,974.7 L704,1019.48 L737.68,974.7 L729.82,1030.18 Z"/><path d="M961.3,1022.32 L916.52,1056 L961.3,1089.68 L905.82,1081.82 L913.68,1137.3 L880,1092.52 L846.32,1137.3 L854.18,1081.82 L798.7,1089.68 L843.48,1056 L798.7,1022.32 L854.18,1030.18 L846.32,974.7 L880,1019.48 L913.68,974.7 L905.82,1030.18 Z"/><path d="M1137.3,1022.32 L1092.52,1056 L1137.3,1089.68 L1081.82,1081.82 L1089.68,1137.3 L1056,1092.52 L1022.32,1137.3 L1030.18,1081.82 L974.7,1089.68 L1019.48,1056 L974.7,1022.32 L1030.18,1030.18 L1022.32,974.7 L1056,1019.48 L1089.68,974.7 L1081.82,1030.18 Z"/><path d="M1313.3,1022.32 L1268.52,1056 L1313.3,1089.68 L1257.82,1081.82 L1265.68,1137.3 L1232,1092.52 L1198.32,1137.3 L1206.18,1081.82 L1150.7,1089.68 L1195.48,1056 L1150.7,1022.32 L1206.18,1030.18 L1198.32,974.7 L1232,1019.48 L1265.68,974.7 L1257.82,1030.18 Z"/><path d="M1489.3,1022.32 L1444.52,1056 L1489.3,1089.68 L1433.82,1081.82 L1441.68,1137.3 L1408,1092.52 L1374.32,1137.3 L1382.18,1081.82 L1326.7,1089.68 L1371.48,1056 L1326.7,1022.32 L1382.18,1030.18 L1374.32,974.7 L1408,1019.48 L1441.68,974.7 L1433.82,1030.18 Z"/><path d="M1665.3,1022.32 L1620.52,1056 L1665.3,1089.68 L1609.82,1081.82 L1617.68,1137.3 L1584,1092.52 L1550.32,1137.3 L1558.18,1081.82 L1502.7,1089.68 L1547.48,1056 L1502.7,1022.32 L1558.18,1030.18 L1550.32,974.7 L1584,1019.48 L1617.68,974.7 L1609.82,1030.18 Z"/><path d="M1841.3,1022.32 L1796.52,1056 L1841.3,1089.68 L1785.82,1081.82 L1793.68,1137.3 L1760,1092.52 L1726.32,1137.3 L1734.18,1081.82 L1678.7,1089.68 L1723.48,1056 L1678.7,1022.32 L1734.18,1030.18 L1726.32,974.7 L1760,1019.48 L1793.68,974.7 L1785.82,1030.18 Z"/><path d="M2017.3,1022.32 L1972.52,1056 L2017.3,1089.68 L1961.82,1081.82 L1969.68,1137.3 L1936,1092.52 L1902.32,1137.3 L1910.18,1081.82 L1854.7,1089.68 L1899.48,1056 L1854.7,1022.32 L1910.18,1030.18 L1902.32,974.7 L1936,1019.48 L1969.68,974.7 L1961.82,1030.18 Z"/><path d="M2193.3,1022.32 L2148.52,1056 L2193.3,1089.68 L2137.82,1081.82 L2145.68,1137.3 L2112,1092.52 L2078.32,1137.3 L2086.18,1081.82 L2030.7,1089.68 L2075.48,1056 L2030.7,1022.32 L2086.18,1030.18 L2078.32,974.7 L2112,1019.48 L2145.68,974.7 L2137.82,1030.18 Z"/><path d="M2369.3,1022.32 L2324.52,1056 L2369.3,1089.68 L2313.82,1081.82 L2321.68,1137.3 L2288,1092.52 L2254.32,1137.3 L2262.18,1081.82 L2206.7,1089.68 L2251.48,1056 L2206.7,1022.32 L2262.18,1030.18 L2254.32,974.7 L2288,1019.48 L2321.68,974.7 L2313.82,1030.18 Z"/><path d="M2545.3,1022.32 L2500.52,1056 L2545.3,1089.68 L2489.82,1081.82 L2497.68,1137.3 L2464,1092.52 L2430.32,1137.3 L2438.18,1081.82 L2382.7,1089.68 L2427.48,1056 L2382.7,1022.32 L2438.18,1030.18 L2430.32,974.7 L2464,1019.48 L2497.68,974.7 L2489.82,1030.18 Z"/><path d="M2721.3,1022.32 L2676.52,1056 L2721.3,1089.68 L2665.82,1081.82 L2673.68,1137.3 L2640,1092.52 L2606.32,1137.3 L2614.18,1081.82 L2558.7,1089.68 L2603.48,1056 L2558.7,1022.32 L2614.18,1030.18 L2606.32,974.7 L2640,1019.48 L2673.68,974.7 L2665.82,1030.18 Z"/><path d="M-94.7,1198.32 L-139.48,1232 L-94.7,1265.68 L-150.18,1257.82 L-142.32,1313.3 L-176,1268.52 L-209.68,1313.3 L-201.82,1257.82 L-257.3,1265.68 L-212.52,1232 L-257.3,1198.32 L-201.82,1206.18 L-209.68,1150.7 L-176,1195.48 L-142.32,1150.7 L-150.18,1206.18 Z"/><path d="M81.3,1198.32 L36.52,1232 L81.3,1265.68 L25.82,1257.82 L33.68,1313.3 L0,1268.52 L-33.68,1313.3 L-25.82,1257.82 L-81.3,1265.68 L-36.52,1232 L-81.3,1198.32 L-25.82,1206.18 L-33.68,1150.7 L0,1195.48 L33.68,1150.7 L25.82,1206.18 Z"/><path d="M257.3,1198.32 L212.52,1232 L257.3,1265.68 L201.82,1257.82 L209.68,1313.3 L176,1268.52 L142.32,1313.3 L150.18,1257.82 L94.7,1265.68 L139.48,1232 L94.7,1198.32 L150.18,1206.18 L142.32,1150.7 L176,1195.48 L209.68,1150.7 L201.82,1206.18 Z"/><path d="M433.3,1198.32 L388.52,1232 L433.3,1265.68 L377.82,1257.82 L385.68,1313.3 L352,1268.52 L318.32,1313.3 L326.18,1257.82 L270.7,1265.68 L315.48,1232 L270.7,1198.32 L326.18,1206.18 L318.32,1150.7 L352,1195.48 L385.68,1150.7 L377.82,1206.18 Z"/><path d="M609.3,1198.32 L564.52,1232 L609.3,1265.68 L553.82,1257.82 L561.68,1313.3 L528,1268.52 L494.32,1313.3 L502.18,1257.82 L446.7,1265.68 L491.48,1232 L446.7,1198.32 L502.18,1206.18 L494.32,1150.7 L528,1195.48 L561.68,1150.7 L553.82,1206.18 Z"/><path d="M785.3,1198.32 L740.52,1232 L785.3,1265.68 L729.82,1257.82 L737.68,1313.3 L704,1268.52 L670.32,1313.3 L678.18,1257.82 L622.7,1265.68 L667.48,1232 L622.7,1198.32 L678.18,1206.18 L670.32,1150.7 L704,1195.48 L737.68,1150.7 L729.82,1206.18 Z"/><path d="M961.3,1198.32 L916.52,1232 L961.3,1265.68 L905.82,1257.82 L913.68,1313.3 L880,1268.52 L846.32,1313.3 L854.18,1257.82 L798.7,1265.68 L843.48,1232 L798.7,1198.32 L854.18,1206.18 L846.32,1150.7 L880,1195.48 L913.68,1150.7 L905.82,1206.18 Z"/><path d="M1137.3,1198.32 L1092.52,1232 L1137.3,1265.68 L1081.82,1257.82 L1089.68,1313.3 L1056,1268.52 L1022.32,1313.3 L1030.18,1257.82 L974.7,1265.68 L1019.48,1232 L974.7,1198.32 L1030.18,1206.18 L1022.32,1150.7 L1056,1195.48 L1089.68,1150.7 L1081.82,1206.18 Z"/><path d="M1313.3,1198.32 L1268.52,1232 L1313.3,1265.68 L1257.82,1257.82 L1265.68,1313.3 L1232,1268.52 L1198.32,1313.3 L1206.18,1257.82 L1150.7,1265.68 L1195.48,1232 L1150.7,1198.32 L1206.18,1206.18 L1198.32,1150.7 L1232,1195.48 L1265.68,1150.7 L1257.82,1206.18 Z"/><path d="M1489.3,1198.32 L1444.52,1232 L1489.3,1265.68 L1433.82,1257.82 L1441.68,1313.3 L1408,1268.52 L1374.32,1313.3 L1382.18,1257.82 L1326.7,1265.68 L1371.48,1232 L1326.7,1198.32 L1382.18,1206.18 L1374.32,1150.7 L1408,1195.48 L1441.68,1150.7 L1433.82,1206.18 Z"/><path d="M1665.3,1198.32 L1620.52,1232 L1665.3,1265.68 L1609.82,1257.82 L1617.68,1313.3 L1584,1268.52 L1550.32,1313.3 L1558.18,1257.82 L1502.7,1265.68 L1547.48,1232 L1502.7,1198.32 L1558.18,1206.18 L1550.32,1150.7 L1584,1195.48 L1617.68,1150.7 L1609.82,1206.18 Z"/><path d="M1841.3,1198.32 L1796.52,1232 L1841.3,1265.68 L1785.82,1257.82 L1793.68,1313.3 L1760,1268.52 L1726.32,1313.3 L1734.18,1257.82 L1678.7,1265.68 L1723.48,1232 L1678.7,1198.32 L1734.18,1206.18 L1726.32,1150.7 L1760,1195.48 L1793.68,1150.7 L1785.82,1206.18 Z"/><path d="M2017.3,1198.32 L1972.52,1232 L2017.3,1265.68 L1961.82,1257.82 L1969.68,1313.3 L1936,1268.52 L1902.32,1313.3 L1910.18,1257.82 L1854.7,1265.68 L1899.48,1232 L1854.7,1198.32 L1910.18,1206.18 L1902.32,1150.7 L1936,1195.48 L1969.68,1150.7 L1961.82,1206.18 Z"/><path d="M2193.3,1198.32 L2148.52,1232 L2193.3,1265.68 L2137.82,1257.82 L2145.68,1313.3 L2112,1268.52 L2078.32,1313.3 L2086.18,1257.82 L2030.7,1265.68 L2075.48,1232 L2030.7,1198.32 L2086.18,1206.18 L2078.32,1150.7 L2112,1195.48 L2145.68,1150.7 L2137.82,1206.18 Z"/><path d="M2369.3,1198.32 L2324.52,1232 L2369.3,1265.68 L2313.82,1257.82 L2321.68,1313.3 L2288,1268.52 L2254.32,1313.3 L2262.18,1257.82 L2206.7,1265.68 L2251.48,1232 L2206.7,1198.32 L2262.18,1206.18 L2254.32,1150.7 L2288,1195.48 L2321.68,1150.7 L2313.82,1206.18 Z"/><path d="M2545.3,1198.32 L2500.52,1232 L2545.3,1265.68 L2489.82,1257.82 L2497.68,1313.3 L2464,1268.52 L2430.32,1313.3 L2438.18,1257.82 L2382.7,1265.68 L2427.48,1232 L2382.7,1198.32 L2438.18,1206.18 L2430.32,1150.7 L2464,1195.48 L2497.68,1150.7 L2489.82,1206.18 Z"/><path d="M2721.3,1198.32 L2676.52,1232 L2721.3,1265.68 L2665.82,1257.82 L2673.68,1313.3 L2640,1268.52 L2606.32,1313.3 L2614.18,1257.82 L2558.7,1265.68 L2603.48,1232 L2558.7,1198.32 L2614.18,1206.18 L2606.32,1150.7 L2640,1195.48 L2673.68,1150.7 L2665.82,1206.18 Z"/></g>
  <g fill="none" stroke="rgba(16,19,15,0.28)" stroke-width="1.5"><polygon points="-88,-113.52 -62.48,-88 -88,-62.48 -113.52,-88"/><polygon points="88,-113.52 113.52,-88 88,-62.48 62.48,-88"/><polygon points="264,-113.52 289.52,-88 264,-62.48 238.48,-88"/><polygon points="440,-113.52 465.52,-88 440,-62.48 414.48,-88"/><polygon points="616,-113.52 641.52,-88 616,-62.48 590.48,-88"/><polygon points="792,-113.52 817.52,-88 792,-62.48 766.48,-88"/><polygon points="968,-113.52 993.52,-88 968,-62.48 942.48,-88"/><polygon points="1144,-113.52 1169.52,-88 1144,-62.48 1118.48,-88"/><polygon points="1320,-113.52 1345.52,-88 1320,-62.48 1294.48,-88"/><polygon points="1496,-113.52 1521.52,-88 1496,-62.48 1470.48,-88"/><polygon points="1672,-113.52 1697.52,-88 1672,-62.48 1646.48,-88"/><polygon points="1848,-113.52 1873.52,-88 1848,-62.48 1822.48,-88"/><polygon points="2024,-113.52 2049.52,-88 2024,-62.48 1998.48,-88"/><polygon points="2200,-113.52 2225.52,-88 2200,-62.48 2174.48,-88"/><polygon points="2376,-113.52 2401.52,-88 2376,-62.48 2350.48,-88"/><polygon points="2552,-113.52 2577.52,-88 2552,-62.48 2526.48,-88"/><polygon points="2728,-113.52 2753.52,-88 2728,-62.48 2702.48,-88"/><polygon points="-88,62.48 -62.48,88 -88,113.52 -113.52,88"/><polygon points="88,62.48 113.52,88 88,113.52 62.48,88"/><polygon points="264,62.48 289.52,88 264,113.52 238.48,88"/><polygon points="440,62.48 465.52,88 440,113.52 414.48,88"/><polygon points="616,62.48 641.52,88 616,113.52 590.48,88"/><polygon points="792,62.48 817.52,88 792,113.52 766.48,88"/><polygon points="968,62.48 993.52,88 968,113.52 942.48,88"/><polygon points="1144,62.48 1169.52,88 1144,113.52 1118.48,88"/><polygon points="1320,62.48 1345.52,88 1320,113.52 1294.48,88"/><polygon points="1496,62.48 1521.52,88 1496,113.52 1470.48,88"/><polygon points="1672,62.48 1697.52,88 1672,113.52 1646.48,88"/><polygon points="1848,62.48 1873.52,88 1848,113.52 1822.48,88"/><polygon points="2024,62.48 2049.52,88 2024,113.52 1998.48,88"/><polygon points="2200,62.48 2225.52,88 2200,113.52 2174.48,88"/><polygon points="2376,62.48 2401.52,88 2376,113.52 2350.48,88"/><polygon points="2552,62.48 2577.52,88 2552,113.52 2526.48,88"/><polygon points="2728,62.48 2753.52,88 2728,113.52 2702.48,88"/><polygon points="-88,238.48 -62.48,264 -88,289.52 -113.52,264"/><polygon points="88,238.48 113.52,264 88,289.52 62.48,264"/><polygon points="264,238.48 289.52,264 264,289.52 238.48,264"/><polygon points="440,238.48 465.52,264 440,289.52 414.48,264"/><polygon points="616,238.48 641.52,264 616,289.52 590.48,264"/><polygon points="792,238.48 817.52,264 792,289.52 766.48,264"/><polygon points="968,238.48 993.52,264 968,289.52 942.48,264"/><polygon points="1144,238.48 1169.52,264 1144,289.52 1118.48,264"/><polygon points="1320,238.48 1345.52,264 1320,289.52 1294.48,264"/><polygon points="1496,238.48 1521.52,264 1496,289.52 1470.48,264"/><polygon points="1672,238.48 1697.52,264 1672,289.52 1646.48,264"/><polygon points="1848,238.48 1873.52,264 1848,289.52 1822.48,264"/><polygon points="2024,238.48 2049.52,264 2024,289.52 1998.48,264"/><polygon points="2200,238.48 2225.52,264 2200,289.52 2174.48,264"/><polygon points="2376,238.48 2401.52,264 2376,289.52 2350.48,264"/><polygon points="2552,238.48 2577.52,264 2552,289.52 2526.48,264"/><polygon points="2728,238.48 2753.52,264 2728,289.52 2702.48,264"/><polygon points="-88,414.48 -62.48,440 -88,465.52 -113.52,440"/><polygon points="88,414.48 113.52,440 88,465.52 62.48,440"/><polygon points="264,414.48 289.52,440 264,465.52 238.48,440"/><polygon points="440,414.48 465.52,440 440,465.52 414.48,440"/><polygon points="616,414.48 641.52,440 616,465.52 590.48,440"/><polygon points="792,414.48 817.52,440 792,465.52 766.48,440"/><polygon points="968,414.48 993.52,440 968,465.52 942.48,440"/><polygon points="1144,414.48 1169.52,440 1144,465.52 1118.48,440"/><polygon points="1320,414.48 1345.52,440 1320,465.52 1294.48,440"/><polygon points="1496,414.48 1521.52,440 1496,465.52 1470.48,440"/><polygon points="1672,414.48 1697.52,440 1672,465.52 1646.48,440"/><polygon points="1848,414.48 1873.52,440 1848,465.52 1822.48,440"/><polygon points="2024,414.48 2049.52,440 2024,465.52 1998.48,440"/><polygon points="2200,414.48 2225.52,440 2200,465.52 2174.48,440"/><polygon points="2376,414.48 2401.52,440 2376,465.52 2350.48,440"/><polygon points="2552,414.48 2577.52,440 2552,465.52 2526.48,440"/><polygon points="2728,414.48 2753.52,440 2728,465.52 2702.48,440"/><polygon points="-88,590.48 -62.48,616 -88,641.52 -113.52,616"/><polygon points="88,590.48 113.52,616 88,641.52 62.48,616"/><polygon points="264,590.48 289.52,616 264,641.52 238.48,616"/><polygon points="440,590.48 465.52,616 440,641.52 414.48,616"/><polygon points="616,590.48 641.52,616 616,641.52 590.48,616"/><polygon points="792,590.48 817.52,616 792,641.52 766.48,616"/><polygon points="968,590.48 993.52,616 968,641.52 942.48,616"/><polygon points="1144,590.48 1169.52,616 1144,641.52 1118.48,616"/><polygon points="1320,590.48 1345.52,616 1320,641.52 1294.48,616"/><polygon points="1496,590.48 1521.52,616 1496,641.52 1470.48,616"/><polygon points="1672,590.48 1697.52,616 1672,641.52 1646.48,616"/><polygon points="1848,590.48 1873.52,616 1848,641.52 1822.48,616"/><polygon points="2024,590.48 2049.52,616 2024,641.52 1998.48,616"/><polygon points="2200,590.48 2225.52,616 2200,641.52 2174.48,616"/><polygon points="2376,590.48 2401.52,616 2376,641.52 2350.48,616"/><polygon points="2552,590.48 2577.52,616 2552,641.52 2526.48,616"/><polygon points="2728,590.48 2753.52,616 2728,641.52 2702.48,616"/><polygon points="-88,766.48 -62.48,792 -88,817.52 -113.52,792"/><polygon points="88,766.48 113.52,792 88,817.52 62.48,792"/><polygon points="264,766.48 289.52,792 264,817.52 238.48,792"/><polygon points="440,766.48 465.52,792 440,817.52 414.48,792"/><polygon points="616,766.48 641.52,792 616,817.52 590.48,792"/><polygon points="792,766.48 817.52,792 792,817.52 766.48,792"/><polygon points="968,766.48 993.52,792 968,817.52 942.48,792"/><polygon points="1144,766.48 1169.52,792 1144,817.52 1118.48,792"/><polygon points="1320,766.48 1345.52,792 1320,817.52 1294.48,792"/><polygon points="1496,766.48 1521.52,792 1496,817.52 1470.48,792"/><polygon points="1672,766.48 1697.52,792 1672,817.52 1646.48,792"/><polygon points="1848,766.48 1873.52,792 1848,817.52 1822.48,792"/><polygon points="2024,766.48 2049.52,792 2024,817.52 1998.48,792"/><polygon points="2200,766.48 2225.52,792 2200,817.52 2174.48,792"/><polygon points="2376,766.48 2401.52,792 2376,817.52 2350.48,792"/><polygon points="2552,766.48 2577.52,792 2552,817.52 2526.48,792"/><polygon points="2728,766.48 2753.52,792 2728,817.52 2702.48,792"/><polygon points="-88,942.48 -62.48,968 -88,993.52 -113.52,968"/><polygon points="88,942.48 113.52,968 88,993.52 62.48,968"/><polygon points="264,942.48 289.52,968 264,993.52 238.48,968"/><polygon points="440,942.48 465.52,968 440,993.52 414.48,968"/><polygon points="616,942.48 641.52,968 616,993.52 590.48,968"/><polygon points="792,942.48 817.52,968 792,993.52 766.48,968"/><polygon points="968,942.48 993.52,968 968,993.52 942.48,968"/><polygon points="1144,942.48 1169.52,968 1144,993.52 1118.48,968"/><polygon points="1320,942.48 1345.52,968 1320,993.52 1294.48,968"/><polygon points="1496,942.48 1521.52,968 1496,993.52 1470.48,968"/><polygon points="1672,942.48 1697.52,968 1672,993.52 1646.48,968"/><polygon points="1848,942.48 1873.52,968 1848,993.52 1822.48,968"/><polygon points="2024,942.48 2049.52,968 2024,993.52 1998.48,968"/><polygon points="2200,942.48 2225.52,968 2200,993.52 2174.48,968"/><polygon points="2376,942.48 2401.52,968 2376,993.52 2350.48,968"/><polygon points="2552,942.48 2577.52,968 2552,993.52 2526.48,968"/><polygon points="2728,942.48 2753.52,968 2728,993.52 2702.48,968"/><polygon points="-88,1118.48 -62.48,1144 -88,1169.52 -113.52,1144"/><polygon points="88,1118.48 113.52,1144 88,1169.52 62.48,1144"/><polygon points="264,1118.48 289.52,1144 264,1169.52 238.48,1144"/><polygon points="440,1118.48 465.52,1144 440,1169.52 414.48,1144"/><polygon points="616,1118.48 641.52,1144 616,1169.52 590.48,1144"/><polygon points="792,1118.48 817.52,1144 792,1169.52 766.48,1144"/><polygon points="968,1118.48 993.52,1144 968,1169.52 942.48,1144"/><polygon points="1144,1118.48 1169.52,1144 1144,1169.52 1118.48,1144"/><polygon points="1320,1118.48 1345.52,1144 1320,1169.52 1294.48,1144"/><polygon points="1496,1118.48 1521.52,1144 1496,1169.52 1470.48,1144"/><polygon points="1672,1118.48 1697.52,1144 1672,1169.52 1646.48,1144"/><polygon points="1848,1118.48 1873.52,1144 1848,1169.52 1822.48,1144"/><polygon points="2024,1118.48 2049.52,1144 2024,1169.52 1998.48,1144"/><polygon points="2200,1118.48 2225.52,1144 2200,1169.52 2174.48,1144"/><polygon points="2376,1118.48 2401.52,1144 2376,1169.52 2350.48,1144"/><polygon points="2552,1118.48 2577.52,1144 2552,1169.52 2526.48,1144"/><polygon points="2728,1118.48 2753.52,1144 2728,1169.52 2702.48,1144"/><polygon points="-88,1294.48 -62.48,1320 -88,1345.52 -113.52,1320"/><polygon points="88,1294.48 113.52,1320 88,1345.52 62.48,1320"/><polygon points="264,1294.48 289.52,1320 264,1345.52 238.48,1320"/><polygon points="440,1294.48 465.52,1320 440,1345.52 414.48,1320"/><polygon points="616,1294.48 641.52,1320 616,1345.52 590.48,1320"/><polygon points="792,1294.48 817.52,1320 792,1345.52 766.48,1320"/><polygon points="968,1294.48 993.52,1320 968,1345.52 942.48,1320"/><polygon points="1144,1294.48 1169.52,1320 1144,1345.52 1118.48,1320"/><polygon points="1320,1294.48 1345.52,1320 1320,1345.52 1294.48,1320"/><polygon points="1496,1294.48 1521.52,1320 1496,1345.52 1470.48,1320"/><polygon points="1672,1294.48 1697.52,1320 1672,1345.52 1646.48,1320"/><polygon points="1848,1294.48 1873.52,1320 1848,1345.52 1822.48,1320"/><polygon points="2024,1294.48 2049.52,1320 2024,1345.52 1998.48,1320"/><polygon points="2200,1294.48 2225.52,1320 2200,1345.52 2174.48,1320"/><polygon points="2376,1294.48 2401.52,1320 2376,1345.52 2350.48,1320"/><polygon points="2552,1294.48 2577.52,1320 2552,1345.52 2526.48,1320"/><polygon points="2728,1294.48 2753.52,1320 2728,1345.52 2702.48,1320"/></g>
  <g fill="#0c6b49"><circle cx="-176" cy="-176" r="2.4"/><circle cx="176" cy="-176" r="2.4"/><circle cx="528" cy="-176" r="2.4"/><circle cx="880" cy="-176" r="2.4"/><circle cx="1232" cy="-176" r="2.4"/><circle cx="1584" cy="-176" r="2.4"/><circle cx="1936" cy="-176" r="2.4"/><circle cx="2288" cy="-176" r="2.4"/><circle cx="2640" cy="-176" r="2.4"/><circle cx="0" cy="0" r="2.4"/><circle cx="352" cy="0" r="2.4"/><circle cx="704" cy="0" r="2.4"/><circle cx="1056" cy="0" r="2.4"/><circle cx="1408" cy="0" r="2.4"/><circle cx="1760" cy="0" r="2.4"/><circle cx="2112" cy="0" r="2.4"/><circle cx="2464" cy="0" r="2.4"/><circle cx="-176" cy="176" r="2.4"/><circle cx="176" cy="176" r="2.4"/><circle cx="528" cy="176" r="2.4"/><circle cx="880" cy="176" r="2.4"/><circle cx="1232" cy="176" r="2.4"/><circle cx="1584" cy="176" r="2.4"/><circle cx="1936" cy="176" r="2.4"/><circle cx="2288" cy="176" r="2.4"/><circle cx="2640" cy="176" r="2.4"/><circle cx="0" cy="352" r="2.4"/><circle cx="352" cy="352" r="2.4"/><circle cx="704" cy="352" r="2.4"/><circle cx="1056" cy="352" r="2.4"/><circle cx="1408" cy="352" r="2.4"/><circle cx="1760" cy="352" r="2.4"/><circle cx="2112" cy="352" r="2.4"/><circle cx="2464" cy="352" r="2.4"/><circle cx="-176" cy="528" r="2.4"/><circle cx="176" cy="528" r="2.4"/><circle cx="528" cy="528" r="2.4"/><circle cx="880" cy="528" r="2.4"/><circle cx="1232" cy="528" r="2.4"/><circle cx="1584" cy="528" r="2.4"/><circle cx="1936" cy="528" r="2.4"/><circle cx="2288" cy="528" r="2.4"/><circle cx="2640" cy="528" r="2.4"/><circle cx="0" cy="704" r="2.4"/><circle cx="352" cy="704" r="2.4"/><circle cx="704" cy="704" r="2.4"/><circle cx="1056" cy="704" r="2.4"/><circle cx="1408" cy="704" r="2.4"/><circle cx="1760" cy="704" r="2.4"/><circle cx="2112" cy="704" r="2.4"/><circle cx="2464" cy="704" r="2.4"/><circle cx="-176" cy="880" r="2.4"/><circle cx="176" cy="880" r="2.4"/><circle cx="528" cy="880" r="2.4"/><circle cx="880" cy="880" r="2.4"/><circle cx="1232" cy="880" r="2.4"/><circle cx="1584" cy="880" r="2.4"/><circle cx="1936" cy="880" r="2.4"/><circle cx="2288" cy="880" r="2.4"/><circle cx="2640" cy="880" r="2.4"/><circle cx="0" cy="1056" r="2.4"/><circle cx="352" cy="1056" r="2.4"/><circle cx="704" cy="1056" r="2.4"/><circle cx="1056" cy="1056" r="2.4"/><circle cx="1408" cy="1056" r="2.4"/><circle cx="1760" cy="1056" r="2.4"/><circle cx="2112" cy="1056" r="2.4"/><circle cx="2464" cy="1056" r="2.4"/><circle cx="-176" cy="1232" r="2.4"/><circle cx="176" cy="1232" r="2.4"/><circle cx="528" cy="1232" r="2.4"/><circle cx="880" cy="1232" r="2.4"/><circle cx="1232" cy="1232" r="2.4"/><circle cx="1584" cy="1232" r="2.4"/><circle cx="1936" cy="1232" r="2.4"/><circle cx="2288" cy="1232" r="2.4"/><circle cx="2640" cy="1232" r="2.4"/></g>
  <rect width="2400" height="1050" fill="url(#fade)"/>
</svg>